# xmcd CD database file
#
# Track frame offsets:
#	150
#	15952
#	37072
#
# Disc length: 742 seconds
#
# Revision: 3
# Processed by: cddbd v1.5.2PL0 Copyright (c) Steve Scherf et al.
# Submitted via: jetAudio 7
#
DISCID=1802e403
DTITLE=Chariff - I Love Your Smile
DYEAR=1992
DGENRE=Hip-Hop
TTITLE0=I Love Your Smile (Radio Edit)
TTITLE1=I Love Your Smile (Happiness Remix)
TTITLE2=Chariff
EXTD=
EXTT0=
EXTT1=
EXTT2=
PLAYORDER=
